# xmcd
#
# Track frame offsets:
#        150
#        12967
#        26960
#        44530
#        60122
#        73952
#        89890
#        106985
#        119750
#        136565
#        150440
#        169442
#        183545
#        200652
#        218840
#        236567
#        257870
#        270262
#        297975
#        314362
#        326520
#
# Disc length: 4640 seconds
#
# Revision: 0
# Processed by: cddbd v1.5.1PL0 Copyright (c) Steve Scherf et al.
# Submitted via: ExactAudioCopy v0.95a5
#
DISCID=3f121e15
DTITLE=Various Artist - Free Soul - Eye's -
DYEAR=1996
DGENRE=Soul
TTITLE0=The Emotions - So I Can Love You
TTITLE1=The Staple Singers - Heavy Makes You Happy (Sha-Na-Boom Boom)
TTITLE2=Freda Payne - Cherish What Is Dear To You (While It's Near To
TTITLE2=You)
TTITLE3=Honey Cone - One Monkey Don't Stop No Show - Part 1
TTITLE4=Freda Payne - We've Gotta Find A Way Back To Love
TTITLE5=Freedom - Ger Up And Dance
TTITLE6=Honey Cone - Want ADS
TTITLE7=Chairmen Of The Board - All We Need Is Understanding
TTITLE8=Dorothy Moore - Girl Overboard
TTITLE9=Cymande - You Won't Feel So Proud
TTITLE10=James Bradley - I Can't Get Enough Of Your Love
TTITLE11=Patterson Twins - I Need Your Love
TTITLE12=Eloise Laws - Ain't It Good Feeling Good
TTITLE13=Lamont Dozier - Why Can't We Be Lovers
TTITLE14=The Dramatics - Whatcha See Is Whatcha Get
TTITLE15=Experience Unlimited - Peace Gone Away
TTITLE16=Kim Weston - Brother and Sister
TTITLE17=Lucifer - Time Gonna Change Everything
TTITLE18=Sydney Joe Qualls - Bad Risk
TTITLE19=Freda Payne - I Shall Not Be Moved
TTITLE20=Jewell Bass - Let Your Love Rain Come Down
EXTD=
EXTT0=
EXTT1=
EXTT2=
EXTT3=
EXTT4=
EXTT5=
EXTT6=
EXTT7=
EXTT8=
EXTT9=
EXTT10=
EXTT11=
EXTT12=
EXTT13=
EXTT14=
EXTT15=
EXTT16=
EXTT17=
EXTT18=
EXTT19=
EXTT20=
PLAYORDER=
